<?xml version="1.0" encoding="UTF-8" standalone="no"?>
<!-- Created with Inkscape (http://www.inkscape.org/) -->

<svg
   width="4.2333331mm"
   height="4.2333336mm"
   viewBox="105 0 4.2333331 4.2333336"
   version="1.1"
   id="svg5"
   xml:space="preserve"
   xmlns="http://www.w3.org/2000/svg"
   xmlns:svg="http://www.w3.org/2000/svg"><defs
     id="defs2" /><g
     id="layer1"
     transform="translate(-496.58097,-126.30235)"><g
       id="g19"
       transform="matrix(0.40650887,0,0,0.40650887,348.18426,66.45067)"
       style="stroke-width:2.45997"><path
         style="fill:#000000;fill-opacity:1;stroke-width:0.650867"
         d="m 632.03958,155.30317 -0.36828,-0.77749 c 0.22425,-1.36644 -0.40482,-2.57066 -1.15525,-3.34229 -0.62987,-0.64742 -0.42675,-1.27729 -0.42675,-1.82316 0,-0.871 -0.35659,-1.79026 -1.44097,-1.79026 -1.15818,0 -1.47606,0.96676 -1.48702,1.51771 -0.0279,1.32407 0.26734,1.66824 -0.50637,2.63279 -0.91194,1.13406 -1.04713,2.26448 -0.84033,2.86439 -0.0972,0.11185 -0.22729,0.23613 -0.46985,0.33906 -0.67081,0.29228 -0.17897,0.78114 -0.36464,1.12824 -0.0525,0.0986 -0.0782,0.20106 -0.0782,0.30031 0,0.30471 0.24193,0.56777 0.68249,0.5283 0.59336,-0.0533 1.13992,0.36682 1.49359,0.36682 0.31274,0 0.56923,-0.17758 0.68762,-0.42233 0.55973,-0.13754 1.24951,-0.12069 1.80852,0.0221 0.1008,0.28132 0.37267,0.46326 0.67517,0.46326 0.66205,0 0.78992,-0.75045 1.54913,-1.00473 0.27341,-0.0906 0.41067,-0.35585 0.41067,-0.60358 0,-0.1577 -0.0563,-0.30835 -0.16957,-0.40043 z"
         id="path1-4-7" /><path
         style="fill:#f5bd0c;fill-opacity:1;stroke-width:0.650867"
         d="m 628.32608,151.05477 c -0.12925,0 -0.23613,-0.10439 -0.40628,-0.23005 -0.21404,-0.15936 -0.43258,-0.25133 -0.42965,-0.41797 0,-0.11544 0.15356,-0.15052 0.35221,-0.27695 0.21321,-0.13505 0.29667,-0.27176 0.50637,-0.27176 0.21486,0 0.28059,0.10826 0.57215,0.23448 0.28792,0.12428 0.4874,0.17316 0.4874,0.3142 0,0.14389 -0.30106,0.2469 -0.46986,0.35149 -0.2469,0.15356 -0.37557,0.29667 -0.61234,0.29667 z"
         id="path2-6" /><path
         style="fill:#000000;fill-opacity:1;stroke-width:0.650867"
         d="m 628.31805,150.82623 c -0.26375,0 -0.46255,-0.17537 -0.62331,-0.31202 -0.0817,-0.0693 0.0193,-0.19802 0.10302,-0.12787 0.15714,0.13312 0.31567,0.27397 0.52026,0.27397 0.24635,0 0.46328,-0.21128 0.75774,-0.32664 0.1,-0.0395 0.15715,0.11627 0.0577,0.15494 -0.28573,0.11268 -0.51518,0.3376 -0.81549,0.3376 z"
         id="path8-18" /><path
         style="fill:#f5bd0c;fill-opacity:1;stroke-width:0.650867"
         d="m 631.56536,156.1064 c -0.39971,0.15411 -0.67006,0.48154 -0.85568,0.68542 -0.35732,0.39239 -0.8301,0.20464 -0.87979,-0.16212 -0.0533,-0.39239 0.14555,-0.60648 0.23171,-1.04491 0.0773,-0.40118 -0.008,-1.01791 0.17455,-1.08292 0.11903,0.71171 0.83814,0.41211 1.00255,0.21763 0.26595,0 0.28935,0.0906 0.34928,0.34052 0.0373,0.15632 0.0884,0.28789 0.23392,0.44208 0.17095,0.18034 0.11903,0.45961 -0.25657,0.6043 z"
         id="path7-9" /><path
         style="fill:#ffffff;fill-opacity:1;stroke-width:0.650867"
         d="m 629.59826,156.12297 c -0.56265,0.27342 -1.27729,0.39825 -1.8129,0.12124 -0.0782,-0.22867 -0.2052,-0.37632 -0.34199,-0.52537 0.21928,-0.0569 0.38145,-0.33031 0.18642,-0.6043 -0.20686,-0.29302 -0.6306,-0.4969 -1.05881,-0.82864 -0.40115,-0.30982 -0.52758,-1.0727 0.0166,-1.92691 -0.26513,0.75631 -0.10964,1.45266 0.0221,1.65217 0.0276,-0.40118 0.0591,-1.07124 0.60723,-1.87358 0.27621,-0.40482 0.2806,-0.94044 0.28717,-1.27508 l 0.25132,0.17233 c 0.18477,0.13671 0.34053,0.28789 0.56266,0.28789 0.32884,0 0.51004,-0.18918 0.76434,-0.34636 0.0994,-0.0608 0.24912,-0.12262 0.37411,-0.20823 0.21128,1.00473 1.08659,2.21405 1.13628,2.90311 0.20243,-0.41868 -0.0585,-1.42634 -0.0585,-1.42634 0.34196,0.52172 0.369,0.95651 0.38361,1.48992 0.23972,0.0972 0.49615,0.35295 0.51954,0.68834 l -0.1,-0.0111 c -0.0503,-0.37339 -1.05734,-0.92143 -1.14795,-0.21845 -0.48372,0.0737 -0.30763,0.83885 -0.40554,1.33429 -0.0453,0.22729 -0.1287,0.407 -0.1878,0.59555 z"
         id="path6-2" /><path
         style="fill:#f5bd0c;fill-opacity:1;stroke-width:0.650867"
         d="m 626.76162,156.88364 c -0.79721,-0.36242 -1.0683,-0.27985 -1.22031,-0.27985 -0.31639,0 -0.41797,-0.2353 -0.2996,-0.45743 0.10081,-0.18863 0.0693,-0.38656 0.0445,-0.54511 -0.0387,-0.24332 -0.0445,-0.32299 0.19443,-0.42747 0.33028,-0.1403 0.47789,-0.32078 0.58751,-0.45597 0.30763,-0.38071 0.61891,0.21763 0.87321,0.75043 0.16598,0.34563 0.4903,0.52029 0.59041,0.90318 0.0914,0.35367 -0.28937,0.73071 -0.77017,0.51222 z"
         id="path5-7" /><path
         style="fill:#ffffff;fill-opacity:1;stroke-width:0.650867"
         d="m 627.6202,149.07155 c 0.27397,-0.0688 0.43697,0.25049 0.43771,0.58237 l -0.12483,0.0776 c -0.0166,-0.13892 -0.079,-0.36464 -0.2353,-0.31639 -0.16736,0.0511 -0.13947,0.43915 -0.0467,0.51808 l -0.12345,0.0693 c -0.17179,-0.28645 -0.17179,-0.86518 0.0928,-0.93094 z"
         id="path4-9" /><path
         style="fill:#ffffff;fill-opacity:1;stroke-width:0.650867"
         d="m 629.002,148.93788 c 0.35731,0.0569 0.3975,0.68616 0.22646,0.99597 l -0.14389,-0.0585 c 0.0751,-0.22066 0.0737,-0.58383 -0.17675,-0.60648 -0.15852,-0.0138 -0.26016,0.19498 -0.28278,0.37414 -0.0621,-0.0276 -0.1309,-0.0445 -0.21265,-0.0519 0.0276,-0.37485 0.26734,-0.70513 0.58969,-0.65326 z"
         id="path3-5" /></g></g></svg>
