<?xml version="1.0" encoding="UTF-8" standalone="no"?>
<!-- Created with Inkscape (http://www.inkscape.org/) -->

<svg
   width="4.2333331mm"
   height="4.2333336mm"
   viewBox="105 0 4.2333331 4.2333336"
   version="1.1"
   id="svg5"
   xml:space="preserve"
   xmlns="http://www.w3.org/2000/svg"
   xmlns:svg="http://www.w3.org/2000/svg"><defs
     id="defs2" /><g
     id="layer1"
     transform="translate(-501.06843,-126.35402)"><path
       d="m 607.17031,127.79416 1.6e-4,1.5973 c 0,0.14562 0.11772,0.26317 0.26334,0.26317 h 0.0748 v 0.59907 c 0,0.13598 0.11957,0.24659 0.25539,0.24659 0.13632,0 0.252,-0.11061 0.252,-0.24676 v -0.5989 h 0.33826 v 0.59907 c 0,0.13598 0.11959,0.24659 0.25558,0.24659 0.13632,0 0.25183,-0.11061 0.25183,-0.24676 v -0.5989 l 0.0751,-1.7e-4 c 0.14511,0 0.26317,-0.11772 0.26317,-0.26335 v -1.59695 z m 2.70613,0.2488 c 0,-0.13616 -0.11754,-0.2488 -0.25369,-0.2488 -0.13616,-1.7e-4 -0.25371,0.11281 -0.25371,0.24896 v 1.03273 c 0,0.13633 0.11738,0.24051 0.25371,0.24051 0.13615,0 0.25369,-0.10401 0.25369,-0.24051 z m -2.87527,0 c 0,-0.13616 -0.11755,-0.2488 -0.2537,-0.2488 -0.13615,-1.7e-4 -0.25369,0.11281 -0.25369,0.24896 v 1.03273 c 0,0.13633 0.11737,0.24051 0.25369,0.24051 0.13615,0 0.2537,-0.10401 0.2537,-0.24051 z m 1.68305,-1.23671 0.15899,-0.31441 c 0.0115,-0.0223 -0.003,-0.0508 -0.0275,-0.0508 -0.0112,0 -0.022,0.007 -0.0277,0.0177 l -0.16049,0.31764 c -0.25895,-0.12466 -0.59942,-0.13734 -0.8844,0 l -0.16069,-0.31764 c -0.006,-0.0113 -0.0164,-0.0177 -0.0278,-0.0177 -0.0244,0 -0.0391,0.0285 -0.0275,0.0508 l 0.15899,0.31441 c -0.31206,0.17489 -0.51569,0.43704 -0.51569,0.8186 h 2.0296 c 0,-0.38156 -0.20364,-0.64371 -0.51568,-0.8186 z m -0.92178,0.48051 c -0.0467,0 -0.0847,-0.0379 -0.0847,-0.0845 0,-0.0463 0.038,-0.0845 0.0847,-0.0845 0.0467,0 0.0844,0.0382 0.0844,0.0845 0,0.0467 -0.0377,0.0845 -0.0844,0.0845 z m 0.84533,0 c -0.0467,0 -0.0844,-0.0379 -0.0844,-0.0845 0,-0.0463 0.0377,-0.0845 0.0844,-0.0845 0.0467,0 0.0847,0.0382 0.0847,0.0845 0,0.0467 -0.038,0.0845 -0.0847,0.0845 z"
       id="path1-6"
       style="fill:#a4c739;fill-opacity:1;stroke-width:0.264583" /></g></svg>
