<?xml version="1.0" encoding="UTF-8" standalone="no"?>
<!-- Created with Inkscape (http://www.inkscape.org/) -->

<svg
   width="4.2333331mm"
   height="4.2333336mm"
   viewBox="105 0 4.2333331 4.2333336"
   version="1.1"
   id="svg5"
   xml:space="preserve"
   xmlns="http://www.w3.org/2000/svg"
   xmlns:svg="http://www.w3.org/2000/svg"><defs
     id="defs2" /><g
     id="layer1"
     transform="translate(-492.20446,-126.31247)"><path
       d="m 600.98454,129.36186 c -0.13074,0.37925 -0.52214,1.05077 -0.92534,1.05809 -0.26748,0.005 -0.35348,-0.15852 -0.65922,-0.15852 -0.30556,0 -0.4012,0.15353 -0.65404,0.16351 -0.42783,0.0165 -1.08819,-0.96926 -1.08819,-1.82891 0,-0.78962 0.55025,-1.18101 1.03097,-1.18817 0.25783,-0.004 0.50135,0.17383 0.65854,0.17383 0.15786,0 0.45361,-0.21458 0.76449,-0.18314 0.13009,0.006 0.49553,0.0524 0.73007,0.39539 -0.62228,0.4062 -0.5253,1.2557 0.14272,1.56792 z m -0.86862,-2.92875 c -0.47008,0.019 -0.85366,0.51217 -0.8001,0.92003 0.43448,0.0338 0.85133,-0.45327 0.8001,-0.92003 z"
       id="path1-0-8"
       style="fill:#b3b3b3;fill-opacity:1;stroke-width:0.264582" /></g></svg>
